<?xml version="1.0" encoding="UTF-8"?>
<svg version="1.1" xmlns="http://www.w3.org/2000/svg" width="601" height="601">
<path d="M0 0 C0.85916016 0.22913086 1.71832031 0.45826172 2.60351562 0.69433594 C24.20265846 6.49394989 44.63913749 15.50909781 64.68359375 25.3125 C68.45350914 27.08965249 71.67799226 28.1630825 75.8125 28.75 C82.60056951 29.94107431 87.56090147 33.98106986 93 38 C93.86496094 38.59425781 94.72992188 39.18851563 95.62109375 39.80078125 C99.40194377 42.50138841 102.10638657 44.6086466 103.9375 48.9375 C105.92344501 53.58621433 109.16995901 55.81595011 113.1484375 58.796875 C116.30325098 61.23429254 119.21041739 63.84728773 122.125 66.5625 C125.31701353 69.53380516 128.52047839 72.46173311 131.875 75.25 C142.89559006 84.85005662 152.27495912 96.32864679 161 108 C161.5141748 108.67901367 162.02834961 109.35802734 162.55810547 110.05761719 C170.98400202 121.21958889 178.2795769 132.74275071 185 145 C185.43441406 145.77988281 185.86882813 146.55976563 186.31640625 147.36328125 C192.4651976 158.43110568 197.64636287 169.66636316 202.07519531 181.52783203 C202.67700219 183.13656922 203.28787603 184.74195331 203.90917969 186.34326172 C212.54757355 208.61750632 217.53350896 232.27355934 220 256 C220.1403064 257.15677246 220.1403064 257.15677246 220.28344727 258.33691406 C221.34379551 267.9826019 221.19892752 277.68404026 221.1875 287.375 C221.18659363 288.78561707 221.18659363 288.78561707 221.18566895 290.22473145 C221.16232851 303.57261261 221.02970829 316.78037308 219 330 C218.87641113 330.84159668 218.75282227 331.68319336 218.62548828 332.55029297 C214.17632295 361.97949927 205.44839023 391.40591643 192 418 C190.21881981 414.93637007 189.42262888 411.84732725 188.60717773 408.41748047 C183.91527249 389.20821893 174.68538287 372.07083612 162 357 C161.5057251 356.39752441 161.0114502 355.79504883 160.50219727 355.17431641 C157.44783741 351.50633334 154.30850805 348.36528218 150.5625 345.375 C149.14710938 344.24384766 149.14710938 344.24384766 147.703125 343.08984375 C144.52534447 340.63303366 141.30757106 338.27854895 138 336 C141.04893867 332.3412736 144.09013075 328.88357157 147.5625 325.625 C166.00680268 307.3927008 181.68481725 281.48794817 188.23828125 256.3671875 C188.4494458 255.56200684 188.66061035 254.75682617 188.87817383 253.92724609 C189.28257437 252.34870263 189.67009974 250.76570653 190.0378418 249.17822266 C191.28700022 244.21340768 192.74720966 241.18643787 197 238 C199.3515625 237.58984375 199.3515625 237.58984375 201.625 237.9375 C202.38039063 238.02902344 203.13578125 238.12054688 203.9140625 238.21484375 C206.58863335 239.22156424 207.49369054 240.62540388 209 243 C205.20787338 201.13182645 186.251417 157.96038983 162 124 C161.48679199 123.28070313 160.97358398 122.56140625 160.44482422 121.8203125 C153.71996135 112.43625322 146.93333648 103.39811781 139 95 C137.86970833 93.69205429 136.74456689 92.37963752 135.625 91.0625 C126.71914441 80.88437933 116.80721412 70.77116222 105 64 C104.95875 64.94875 104.9175 65.8975 104.875 66.875 C103.84093726 73.85846482 99.62353958 80.06692418 94.1875 84.4375 C87.09292548 89.18965333 79.50063796 91.16214559 71 90 C62.93967336 87.83508677 55.91346909 83.72276606 50.75 77.125 C49.45176071 74.80671556 48.27316247 72.51467149 47.125 70.125 C45.30372643 66.34513461 43.00793016 63.2066498 40.3671875 59.95703125 C36.45026649 54.3502386 36.25679076 48.62385239 37 42 C38.75869129 36.07440948 41.99318216 32.48300372 47 29 C47.66 29 48.32 29 49 29 C46.54055271 25.31082906 44.89389566 24.90690956 40.796875 23.328125 C39.85732971 22.96285706 39.85732971 22.96285706 38.89880371 22.59020996 C36.85317166 21.79932287 34.80211192 21.02390329 32.75 20.25 C31.34340897 19.7126057 29.93683352 19.1751706 28.53027344 18.63769531 C10.19797172 10.64798661 10.19797172 10.64798661 -9 7 C-8.41992188 7.3403125 -7.83984375 7.680625 -7.2421875 8.03125 C1.40247697 13.3949362 6.86218982 20.26140779 10 30 C12.41559948 40.70269261 10.33289139 51.11527385 4.7578125 60.4609375 C-0.7755004 68.45350058 -7.86983196 74.19736492 -17.42578125 76.61328125 C-24.90136007 77.73631965 -32.1321894 77.39562527 -39.4375 75.5 C-47.18134687 73.52644679 -55.72314101 72.24552158 -63.28515625 75.34765625 C-66.77359912 77.47083802 -67.78268789 79.11981765 -69 83 C-68.6671203 86.26222108 -67.98418201 88.05155645 -65.6015625 90.34765625 C-53.9072165 98.6971129 -37.63247981 99.1581079 -23.8203125 99.1328125 C-22.65353973 99.13376923 -21.48676697 99.13472595 -20.28463745 99.13571167 C-17.818664 99.13639027 -15.35268874 99.13455835 -12.88671875 99.13037109 C-9.17183248 99.12506687 -5.4570698 99.13030187 -1.7421875 99.13671875 C9.97232224 99.13981349 21.62530449 98.99497119 33.31591797 98.23144531 C62.1228832 96.42170356 93.20217362 99.54725156 115.90625 119.1484375 C116.5971875 119.75945312 117.288125 120.37046875 118 121 C118.6084375 121.46664062 119.216875 121.93328125 119.84375 122.4140625 C129.58812367 129.9880984 135.38658208 140.38544241 139 152 C139.29970703 152.94166016 139.29970703 152.94166016 139.60546875 153.90234375 C142.00433225 166.65669723 139.47550162 178.55925213 132.2734375 189.296875 C126.45951195 197.07255458 117.88086635 203.57637248 108.28125 205.5625 C104.55145274 206.0598063 100.88086738 206.19105669 97.125 206.1875 C96.06925781 206.1884668 96.06925781 206.1884668 94.9921875 206.18945312 C89.9937953 206.13854357 85.72532614 205.57510871 81 204 C81.39832031 204.79921875 81.79664063 205.5984375 82.20703125 206.421875 C90.38416684 223.37301738 93.94498033 241.53484091 87.7734375 259.83203125 C81.31462243 277.51773402 69.18579793 293.54532461 52 302 C39.53160139 307.68198585 25.13455933 309.7762823 11.875 305.375 C0.37113524 300.29189697 -7.9887179 292.63852112 -13 281 C-14.7514173 275.18235513 -15.38491328 269.87447251 -15.375 263.8125 C-15.37628906 262.98169922 -15.37757813 262.15089844 -15.37890625 261.29492188 C-15.27262465 255.04846221 -14.00030443 249.82819886 -11.9140625 243.9296875 C-10.24997605 238.59607708 -9.53653909 233.12836989 -11.96484375 227.9375 C-17.34573893 220.70058591 -27.40889596 217.42861119 -36 216 C-51.24450296 214.82484879 -67.70559466 213.8095091 -80.25 223.75 C-97.03953056 240.34843021 -102.93998959 266.56153174 -103.24145508 289.35961914 C-103.31549925 315.4887479 -98.89617508 340.8094435 -81 361 C-80.48050781 361.61359375 -79.96101563 362.2271875 -79.42578125 362.859375 C-68.85453054 374.46911129 -52.38914327 381.58815408 -38 387 C-38.45890625 388.16273438 -38.9178125 389.32546875 -39.390625 390.5234375 C-52.63046537 424.78468108 -54.05734652 460.76622541 -39.34082031 494.96582031 C-33.50472417 507.89428398 -26.01585335 518.95047991 -16 529 C-15.17113281 529.8353125 -14.34226562 530.670625 -13.48828125 531.53125 C1.07510195 545.98032093 18.27548519 556.18379692 38 562 C38 562.66 38 563.32 38 564 C13.04013899 574.01331306 -12.30636909 581.45868569 -39 585 C-40.8087561 585.26598999 -40.8087561 585.26598999 -42.65405273 585.53735352 C-53.93504681 587.1125414 -65.10630496 587.27561316 -76.48413086 587.20581055 C-79.56177075 587.18750434 -82.63910798 587.18530217 -85.71679688 587.18554688 C-115.29453015 587.13549191 -115.29453015 587.13549191 -129.4375 584.1875 C-130.32163574 584.01009277 -131.20577148 583.83268555 -132.11669922 583.64990234 C-134.74783684 583.11477977 -137.37429085 582.56109236 -140 582 C-141.13187744 581.76192627 -141.13187744 581.76192627 -142.28662109 581.51904297 C-153.76005756 579.07617763 -164.88967136 575.74825484 -176 572 C-176.75474609 571.74911621 -177.50949219 571.49823242 -178.28710938 571.23974609 C-210.68941149 560.35262859 -240.76975676 542.84434218 -267 521 C-267.8971875 520.28714844 -268.794375 519.57429687 -269.71875 518.83984375 C-277.31941511 512.65940601 -284.3098151 505.90500424 -291.25 499 C-292.17264648 498.08653809 -293.09529297 497.17307617 -294.04589844 496.23193359 C-300.12163256 490.12892957 -305.66446617 483.7563582 -311 477 C-311.47679199 476.40815918 -311.95358398 475.81631836 -312.44482422 475.20654297 C-343.94531662 436.03926405 -364.08657664 389.77421486 -373.3125 340.5 C-373.53365479 339.32087036 -373.53365479 339.32087036 -373.75927734 338.11791992 C-376.653454 321.44671593 -377.37615487 304.82901742 -377.3125 287.9375 C-377.30926727 286.38837418 -377.30926727 286.38837418 -377.30596924 284.80795288 C-377.25321286 269.02571414 -376.81460068 253.5700776 -374 238 C-373.80132324 236.89317871 -373.60264648 235.78635742 -373.39794922 234.64599609 C-364.33238406 185.84133929 -344.50937158 141.12565461 -314 102 C-312.95585937 100.63488281 -312.95585937 100.63488281 -311.890625 99.2421875 C-298.48437434 82.01349347 -282.41894838 65.16044857 -265 52 C-263.7444761 51.02775113 -262.48929354 50.05506137 -261.234375 49.08203125 C-239.01653479 32 -239.01653479 32 -234 32 C-234 31.34 -234 30.68 -234 30 C-232.2984375 29.566875 -232.2984375 29.566875 -230.5625 29.125 C-229.386875 28.75375 -228.21125 28.3825 -227 28 C-226.67 27.34 -226.34 26.68 -226 26 C-224.66666667 25.66666667 -223.33333333 25.33333333 -222 25 C-221.67 24.34 -221.34 23.68 -221 23 C-190.43149238 3.97266362 -149.28187011 -4.85478945 -114 -9 C-113.26031982 -9.0935376 -112.52063965 -9.1870752 -111.75854492 -9.28344727 C-74.53081735 -13.37890279 -35.99009956 -9.91563968 0 0 Z M-254 77 C-254.54011719 77.43715332 -255.08023438 77.87430664 -255.63671875 78.32470703 C-269.73225136 89.82045172 -282.86235938 102.6042529 -294 117 C-294.60070312 117.71027344 -295.20140625 118.42054688 -295.8203125 119.15234375 C-324.16786469 152.89660566 -342.65823658 195.62019369 -350.75 238.6875 C-350.94867676 239.74259766 -351.14735352 240.79769531 -351.35205078 241.88476562 C-354.08961157 257.20759943 -355.389304 272.38304753 -355.3125 287.9375 C-355.31034485 288.73437225 -355.3081897 289.53124451 -355.30596924 290.3522644 C-355.106756 336.69007001 -344.21997191 382.68108029 -321 423 C-320.01 422.67 -319.02 422.34 -318 422 C-317.11148941 419.4060645 -317.11148941 419.4060645 -316.5625 416.3125 C-315.41003765 411.25247 -314.28923835 407.98695558 -311 404 C-310.1028125 402.88625 -310.1028125 402.88625 -309.1875 401.75 C-305.07836184 398.46268947 -300.70538617 397.76102047 -295.5625 398.0625 C-289.4516053 399.00662804 -285.07763698 401.36405529 -281.2265625 406.25 C-278.17573244 410.88836606 -275.60393984 415.7411236 -273.07080078 420.67260742 C-266.9623403 432.50053926 -260.00989907 441.25143697 -247.15234375 446.06640625 C-237.17983447 448.99640568 -226.94059898 448.67122295 -217.41015625 444.34765625 C-207.59020655 438.85676055 -201.65710592 431.88431987 -197.625 421.4375 C-195.98313802 412.40725911 -196.86310706 404.20606411 -201.6640625 396.23828125 C-216.89597681 374.4827383 -241.40674824 361.07023745 -263.67578125 347.546875 C-293.89867345 329.15885417 -293.89867345 329.15885417 -297.6171875 316.421875 C-298.61955313 310.08037815 -296.66580136 304.6234729 -293.375 299.25 C-290.18140262 294.8655697 -286.61289954 291.81566595 -282 289 C-281.35675781 288.58621094 -280.71351563 288.17242187 -280.05078125 287.74609375 C-270.82184711 282.70094309 -259.2111835 284.19566835 -249.375 286.5625 C-233.82795787 291.24297795 -216.85535077 300.39857852 -208.79296875 315.21875 C-207.46090174 318.13233477 -206.28864365 321.02943574 -205.375 324.1015625 C-203.54573601 330.02380466 -200.20011088 333.630401 -195 337 C-187.04445334 340.28289408 -177.66612171 340.32899136 -169.5625 337.4375 C-163.47605536 334.58447908 -158.81711937 330.41481727 -156 324.25 C-153.73184814 316.83214486 -155.31242905 309.85349508 -158.4375 302.9375 C-167.74075113 285.93273674 -186.45145922 277.21004908 -202.671875 268.02734375 C-207.82850005 265.10343565 -212.96622616 262.15302338 -218.0625 259.125 C-218.80604736 258.69711182 -219.54959473 258.26922363 -220.31567383 257.82836914 C-225.73448029 254.5735481 -228.95034328 251.14897017 -231 245 C-231.61932024 239.76115991 -231.45516529 235.19176741 -228.4609375 230.63671875 C-224.62119856 226.33497914 -219.97845375 223.60060203 -214.5 221.9375 C-203.85114452 222.12765813 -196.26029943 228.48754946 -188.34765625 234.984375 C-175.33034989 245.89906008 -175.33034989 245.89906008 -159 249 C-154.8263394 248.17692208 -151.90565525 247.022514 -149.0625 243.8125 C-146.61599418 237.33645517 -146.52975913 232.09376491 -148.73828125 225.578125 C-155.35936122 212.04898327 -170.4890758 203.82582635 -183 196.5 C-209.218582 181.14759471 -209.218582 181.14759471 -212.3125 169.75 C-214.09964966 160.15413335 -211.73469975 152.03979633 -206.68359375 143.87109375 C-200.80106292 135.42397182 -193.03579738 130.32903772 -183 128 C-171.80703187 126.69259729 -163.72860556 129.27852326 -154.97265625 136.171875 C-150.51696159 140.30111282 -146.96629535 145.2481746 -143.4453125 150.17578125 C-138.67156097 156.8203273 -133.10931697 163.14608753 -125.078125 165.69140625 C-119.72257612 166.48668512 -115.40794794 165.04065717 -111.125 161.875 C-106.60444751 155.7589584 -105.03476327 149.56322478 -106 142 C-107.31461993 136.33388618 -109.53292231 132.82892374 -114 129 C-114.7425 128.34 -115.485 127.68 -116.25 127 C-119.35321359 124.74311739 -122.58109764 123.05041193 -126.01171875 121.34375 C-128.3339169 119.77432728 -129.02764194 118.60130841 -130 116 C-130.60190436 111.95864218 -130.3236847 110.4754119 -128 107.0625 C-125 105 -125 105 -121.375 104.8125 C-111.09830856 106.90267453 -101.29188261 114.1331991 -95.1796875 122.48828125 C-88.16855619 133.648512 -87.13757556 144.76389823 -89.203125 157.58984375 C-91.581208 167.76664014 -96.95158543 175.17713409 -105.72265625 180.70703125 C-113.93051237 185.3670662 -124.3248498 185.21900136 -133.3125 182.875 C-144.68459108 178.90117751 -153.85513231 168.62212448 -160.1875 158.75 C-165.30063162 150.71970802 -165.30063162 150.71970802 -173.4140625 146.28515625 C-178.47646477 145.48220725 -182.20724313 145.77253528 -186.47265625 148.703125 C-191.23304601 152.74519508 -194.08613862 157.15209023 -196 163 C-195.77038099 165.98973323 -195.40047253 167.5401982 -193.41796875 169.81640625 C-186.84504228 174.96193713 -179.86146897 179.18641617 -172.68286133 183.42919922 C-136.91675299 204.57143127 -136.91675299 204.57143127 -131 224 C-125.85182903 222.2942807 -121.62373428 219.25875282 -117.125 216.3125 C-91.14879641 199.67730945 -60.35221407 190.94367435 -29.5 197.5625 C-17.62553046 200.40067913 -4.09084259 205.73697408 2.5546875 216.5234375 C8.64668916 228.26000567 7.66485081 238.89122921 4.4230957 251.41650391 C2.30768538 259.86495333 1.92112535 268.08698319 6 276 C9.99900543 281.67426446 14.08881754 286.27220439 21 288 C33.40259674 289.38994619 42.7648568 285.65528862 52.49609375 278.125 C62.5182024 269.6194975 69.54468646 257.48880652 70.73608398 244.24072266 C71.79393797 228.12936472 67.88072939 213.72073316 57.109375 201.32373047 C49.57201445 192.98138396 41.01676208 186.16933091 31 181 C30.34 181 29.68 181 29 181 C27.69912275 177.09736825 27.43421176 173.06036267 28 169 C29.4375 166.5 29.4375 166.5 32 165 C36.99494527 163.95267276 39.51366579 164.1450637 43.9609375 166.703125 C45.64538442 167.84742861 47.32939352 168.99246645 49.00366211 170.15161133 C65.24740715 181.14498217 85.30226611 187.85300847 105 186 C110.87335284 184.66608712 116.02202461 181.09250022 119.26171875 176.02734375 C123.08267203 168.42565774 123.0434823 161.50972914 120.4375 153.5 C114.70949579 139.32967599 104.25396839 129.89390081 90.578125 123.5 C75.86533617 117.33219333 61.35517118 115.63441511 45.5 115.75 C44.43135712 115.75265869 44.43135712 115.75265869 43.34112549 115.75537109 C33.31408396 115.78427628 23.37444779 116.21013346 13.375 117 C-7.90148698 118.66704492 -30.08664957 120.0449951 -51 115 C-51.71172363 114.82839355 -52.42344727 114.65678711 -53.15673828 114.47998047 C-64.83966751 111.52424956 -75.98725618 107.23786573 -82.921875 96.8359375 C-87.11291863 89.69901538 -87.71400364 82.41270698 -85.8359375 74.44921875 C-83.27102551 66.93426634 -77.80363331 62.42553525 -71.10546875 58.484375 C-59.82832453 53.09404191 -47.8680574 53.2438824 -36 56.55859375 C-32.87900771 57.2474065 -29.81540761 57.25200325 -26.625 57.3125 C-25.33851563 57.34988281 -24.05203125 57.38726562 -22.7265625 57.42578125 C-17.69379607 56.85075867 -14.81850876 54.86079966 -11.3203125 51.28125 C-7.37941393 45.40853841 -7.12186968 39.92747251 -8 33 C-9.38867474 28.67967857 -11.15820648 26.39345248 -14.97509766 23.93652344 C-19.39730237 21.89124043 -24.33930859 21.52707881 -29.125 20.875 C-31.27349224 20.5602693 -33.42192994 20.24516601 -35.5703125 19.9296875 C-36.63717285 19.77902832 -37.7040332 19.62836914 -38.80322266 19.47314453 C-41.93248864 19.00999213 -45.04150195 18.47341892 -48.15625 17.921875 C-53.56773067 17.00857114 -58.89482228 16.57354961 -64.375 16.375 C-65.28926758 16.33850342 -66.20353516 16.30200684 -67.14550781 16.2644043 C-69.7634451 16.16582765 -72.38146287 16.08080601 -75 16 C-76.18335938 15.95746094 -77.36671875 15.91492188 -78.5859375 15.87109375 C-141.82859125 14.6999335 -205.12228893 37.20347656 -254 77 Z M55 46 C55.12056596 48.36539052 55.12056596 48.36539052 56 51 C56.77472656 51.58136719 57.54945313 52.16273437 58.34765625 52.76171875 C61.49957276 55.4215835 62.56521693 57.82279214 64.25 61.5625 C67.18300174 67.30710549 67.18300174 67.30710549 72.5625 70.4375 C76.55377509 71.25204594 79.35020751 70.95221459 83 69 C86.17104212 66.25747709 87.80277566 64.44631181 88.375 60.25 C87.97591303 56.7912463 87.11187078 54.94294514 84.74609375 52.3828125 C81.26358857 49.62485538 77.19039219 48.33476505 73 47 C72.29230469 46.773125 71.58460938 46.54625 70.85546875 46.3125 C65.96832997 44.92443691 59.72718008 43.63640996 55 46 Z M-146 369 C-146.4224658 373.41446151 -145.71393413 376.0579845 -143.6875 379.9375 C-140.55974733 386.92018593 -139.8935041 393.97015336 -139.25268555 401.55053711 C-138.52042288 408.93549741 -136.78762482 416.37521059 -131.23388672 421.69018555 C-124.80060204 426.43952797 -118.74490972 426.72232319 -111 426 C-106.12862139 424.41075592 -102.70602332 421.3095927 -100 417 C-97.35060546 410.56575613 -97.65943617 404.51693163 -99.61328125 397.93359375 C-105.85372242 383.29369621 -122.96247893 374.86247611 -136.37890625 367.99609375 C-140.32854185 366.4951145 -142.90219536 365.90219536 -146 369 Z " fill="#FCFCFC" transform="translate(377,13)"/>
<path d="M0 0 C0.85078125 -0.020625 1.7015625 -0.04125 2.578125 -0.0625 C7.44576433 -0.09282797 10.64981671 0.11419805 14.625 3.25 C16.15493593 4.77993593 15.83918058 6.22594295 15.93920898 8.36157227 C16.00169579 9.68909767 16.00169579 9.68909767 16.06544495 11.04344177 C16.10443405 12.02039505 16.14342316 12.99734833 16.18359375 14.00390625 C16.22584579 15.02400284 16.26809784 16.04409943 16.31163025 17.09510803 C16.79871561 30.12331067 16.73303793 43.15248221 16.6875 56.1875 C16.68246762 58.73242098 16.67790783 61.27734294 16.67382812 63.82226562 C16.66297705 69.96486568 16.64638073 76.10742801 16.625 82.25 C17.71441895 82.22905273 18.80383789 82.20810547 19.92626953 82.18652344 C23.98521678 82.11388135 28.04410706 82.06811282 32.10351562 82.03027344 C33.85719479 82.0102129 35.61080753 81.98295749 37.36425781 81.94824219 C39.89144318 81.89947698 42.41774091 81.87697608 44.9453125 81.859375 C45.72367462 81.83872986 46.50203674 81.81808472 47.3039856 81.79681396 C52.54102025 81.79467672 55.46643178 82.79305728 59.625 86.25 C62.11139492 89.69887038 62.8867135 92.44444519 62.75 96.625 C62.12973708 100.23914663 61.12465143 102.23340018 58.65844727 104.93139648 C58.02568878 105.62393524 57.3929303 106.316474 56.74099731 107.02999878 C52.8819043 111.07877102 48.93881228 115.0368671 44.96484375 118.97265625 C43.57708093 120.35463234 42.189321 121.73661135 40.80172825 123.1187582 C38.39080571 125.51884022 35.97655936 127.91557378 33.5625 130.3125 C30.67368853 133.18083626 27.7855116 136.04979154 24.90126038 138.92271423 C23.11280229 140.70370688 21.32209623 142.48244593 19.52879333 144.25856018 C15.46295131 148.30798012 11.54247066 152.34598358 7.99317932 156.86058044 C5.61542932 159.27524371 3.15362669 160.14187181 -0.125 160.8125 C-8.99733241 159.27690401 -16.58604239 148.18556196 -22.8046875 141.953125 C-23.88690884 140.87157873 -24.96927846 139.79018082 -26.05178833 138.70892334 C-28.30405516 136.45812079 -30.55452843 134.20554469 -32.80371094 131.95166016 C-35.68529255 129.06434752 -38.57138755 126.18159447 -41.45881462 123.30012894 C-43.68764999 121.07490433 -45.91410172 118.84730708 -48.13983536 116.61898041 C-49.20363123 115.55451847 -50.26816764 114.49079607 -51.33346176 113.42783356 C-52.81702601 111.946808 -54.29734889 110.46261666 -55.77685547 108.97753906 C-56.61876434 108.13483459 -57.46067322 107.29213013 -58.32809448 106.42388916 C-61.73788388 102.80256704 -62.99566186 100.18139585 -63.375 95.25 C-62.68105729 90.85502953 -61.74010861 88.22999434 -58.375 85.375 C-53.74897609 82.09823306 -50.6140342 82.11663433 -45.0859375 82.15234375 C-43.85830185 82.15446617 -43.85830185 82.15446617 -42.60586548 82.15663147 C-39.98720675 82.1622371 -37.36863296 82.17479052 -34.75 82.1875 C-32.97656373 82.19251428 -31.20312613 82.19707731 -29.4296875 82.20117188 C-25.07809218 82.21220836 -20.7265605 82.22947675 -16.375 82.25 C-16.38388245 81.29422058 -16.39276489 80.33844116 -16.4019165 79.35369873 C-16.48298444 70.34873141 -16.5429567 61.34383808 -16.58224869 52.33858871 C-16.60312826 47.70880684 -16.63145249 43.07931943 -16.67675781 38.44970703 C-16.72020263 33.98228306 -16.74413432 29.51514241 -16.75450897 25.0475235 C-16.76190283 23.34263905 -16.77634132 21.6377702 -16.79792023 19.93300629 C-16.82693694 17.54581636 -16.83095686 15.1597987 -16.82910156 12.77246094 C-16.84348267 12.06683517 -16.85786377 11.36120941 -16.87268066 10.63420105 C-16.84446281 7.2811605 -16.59605455 5.53911306 -14.53411865 2.84234619 C-10.03513383 -0.47564717 -5.34641578 0.03211061 0 0 Z " fill="#FBFCFC" transform="translate(449.375,369.75)"/>
<path d="M0 0 C4.63606258 3.06944205 8.58716598 6.81615267 12.5546875 10.69140625 C13.4621875 11.55765625 14.3696875 12.42390625 15.3046875 13.31640625 C16.0471875 14.10015625 16.7896875 14.88390625 17.5546875 15.69140625 C18.05742188 16.19929688 18.56015625 16.7071875 19.078125 17.23046875 C25.98185506 24.60567306 27.19828389 32.29698936 26.97265625 42.24609375 C26.04718238 49.87476618 22.37373238 55.7452181 16.5546875 60.69140625 C15.41 61.74328125 15.41 61.74328125 14.2421875 62.81640625 C7.10122018 67.79847647 0.08280962 68.66101187 -8.4453125 67.69140625 C-17.09282135 65.59806117 -23.69476165 60.82971233 -28.59765625 53.453125 C-30.64222852 49.7207415 -31.26955344 46.01968795 -31.6328125 41.81640625 C-31.74278564 40.75824707 -31.74278564 40.75824707 -31.85498047 39.67871094 C-32.06126075 37.68390253 -32.2537507 35.68768184 -32.4453125 33.69140625 C-32.65095518 32.10772121 -32.85867992 30.52430197 -33.0703125 28.94140625 C-33.987288 19.87545978 -34.58923616 11.61810829 -29.4453125 3.69140625 C-21.3838697 -4.81789448 -9.86648799 -5.39429483 0 0 Z M-14.4453125 16.69140625 C-14.42243953 20.90093012 -14.34502669 25.10776245 -14.2578125 29.31640625 C-14.25201172 30.50621094 -14.24621094 31.69601562 -14.24023438 32.921875 C-14.22064382 40.15192782 -14.22064382 40.15192782 -11.14453125 46.4609375 C-7.52270319 49.45379397 -5.07018523 50.11355488 -0.4453125 49.69140625 C2.39328555 48.57222685 2.39328555 48.57222685 4.5546875 46.69140625 C5.1321875 46.25828125 5.7096875 45.82515625 6.3046875 45.37890625 C8.21342976 42.8021042 8.43183387 40.88560061 8.5546875 37.69140625 C6.64300717 31.98966978 4.14269594 28.81096402 -0.3828125 24.94140625 C-0.90810547 24.47347656 -1.43339844 24.00554687 -1.97460938 23.5234375 C-3.44544344 22.22380189 -4.94460656 20.95643085 -6.4453125 19.69140625 C-7.14785156 19.088125 -7.85039062 18.48484375 -8.57421875 17.86328125 C-10.64235015 16.33754365 -10.64235015 16.33754365 -14.4453125 16.69140625 Z " fill="#FBFBFB" transform="translate(511.4453125,237.30859375)"/>
<path d="" fill="#BFBFBF" transform="translate(0,0)"/>
<path d="" fill="#0000FF" transform="translate(0,0)"/>
<path d="" fill="#BFBFBF" transform="translate(0,0)"/>
<path d="" fill="#BFBFBF" transform="translate(0,0)"/>
<path d="" fill="#BFBFBF" transform="translate(0,0)"/>
<path d="" fill="#BFBFBF" transform="translate(0,0)"/>
<path d="" fill="#BFBFBF" transform="translate(0,0)"/>
<path d="" fill="#BFBFBF" transform="translate(0,0)"/>
<path d="" fill="#BFBFBF" transform="translate(0,0)"/>
<path d="" fill="#0000FF" transform="translate(0,0)"/>
<path d="" fill="#BFBFBF" transform="translate(0,0)"/>
<path d="" fill="#BFBFBF" transform="translate(0,0)"/>
<path d="" fill="#BFBFBF" transform="translate(0,0)"/>
<path d="" fill="#BFBFBF" transform="translate(0,0)"/>
<path d="" fill="#0000FF" transform="translate(0,0)"/>
<path d="" fill="#0000FF" transform="translate(0,0)"/>
<path d="" fill="#0000FF" transform="translate(0,0)"/>
<path d="" fill="#BFBFBF" transform="translate(0,0)"/>
<path d="" fill="#BFBFBF" transform="translate(0,0)"/>
<path d="" fill="#0000FF" transform="translate(0,0)"/>
<path d="" fill="#0000FF" transform="translate(0,0)"/>
<path d="" fill="#0000FF" transform="translate(0,0)"/>
<path d="" fill="#BFBFBF" transform="translate(0,0)"/>
<path d="" fill="#BFBFBF" transform="translate(0,0)"/>
<path d="" fill="#BFBFBF" transform="translate(0,0)"/>
<path d="" fill="#0000FF" transform="translate(0,0)"/>
<path d="" fill="#0000FF" transform="translate(0,0)"/>
<path d="" fill="#0000FF" transform="translate(0,0)"/>
<path d="" fill="#BFBFBF" transform="translate(0,0)"/>
<path d="" fill="#BFBFBF" transform="translate(0,0)"/>
<path d="" fill="#BFBFBF" transform="translate(0,0)"/>
<path d="" fill="#BFBFBF" transform="translate(0,0)"/>
<path d="" fill="#BFBFBF" transform="translate(0,0)"/>
<path d="" fill="#BFBFBF" transform="translate(0,0)"/>
<path d="" fill="#BFBFBF" transform="translate(0,0)"/>
<path d="" fill="#BFBFBF" transform="translate(0,0)"/>
<path d="" fill="#0000FF" transform="translate(0,0)"/>
<path d="" fill="#0000FF" transform="translate(0,0)"/>
<path d="" fill="#0000FF" transform="translate(0,0)"/>
<path d="" fill="#BFBFBF" transform="translate(0,0)"/>
<path d="" fill="#BFBFBF" transform="translate(0,0)"/>
</svg>
